:SAMPLES-PER-SECOND 30
:FULLY-SPECIFIED
:DEGREES
148
root  -6.96724 36.5057 -5.78286 154.525 -80.8135 -160.957
RightUpLeg  -26.4774 -17.0648 -15.849
RightLeg  50.0072 1.07738 1.05231
RightFoot  15.7908 -2.76086 12.0171
RightToes  6.35927e-011 1.30204e-014 -6.03759e-014
Spine  22.7113 -4.56485 -17.3059
Spine1  -9.98747 -7.73506 0.504474
HEad  -35.3487 -38.7 18.985
LeftShoulder1  2.25159 -7.59179 -13.3068
LeftArm  31.6361 -22.7866 -71.5416
LeftForeArm  78.1293 -76.823 -38.8664
LeftHand  0.277838 3.49279 -30.5138
RightShoulder  0.846915 0.805822 12.6813
RightArm  -29.7844 -10.9766 41.5313
RightForeArm  64.1561 74.4755 33.4286
RightHand  -1.63165 -14.627 18.346
LeftUpLeg  -5.5878 13.1659 27.3374
LeftLeg  31.279 1.39351 1.28659
LeftFoot  -10.1567 0.370415 -28.6077
LeftToes  7.40077e-010 7.2695e-011 -6.03601e-011
149
root  -7.30032 36.609 -7.31888 127.471 -80.8078 -132.722
RightUpLeg  -21.5595 -17.2802 -10.6667
RightLeg  46.1546 2.47861 2.48916
RightFoot  6.70024 -2.65271 16.7706
RightToes  6.35927e-011 1.30204e-014 -6.03759e-014
Spine  22.8289 -5.35321 -17.8212
Spine1  -12.1814 -8.79298 5.01283
HEad  -42.948 -39.4482 18.475
LeftShoulder1  2.2989 -7.99605 -12.9762
LeftArm  33.8536 -24.5464 -74.3345
LeftForeArm  90.0544 -77.7257 -40.0526
LeftHand  0.492375 -3.49833 -4.61076
RightShoulder  0.879032 0.864765 13.2091
RightArm  -32.7529 -10.3773 37.8595
RightForeArm  63.071 73.5788 31.0126
RightHand  -0.373623 -13.3809 4.60631
LeftUpLeg  -6.2447 11.7666 33.2452
LeftLeg  28.0299 1.19018 1.03126
LeftFoot  -5.41941 1.66716 -30.8818
LeftToes  7.40077e-010 7.2695e-011 -6.03601e-011
150
root  -7.56446 36.7252 -8.84001 99.4524 -80.7968 -103.504
RightUpLeg  -18.7306 -20.3162 -6.1774
RightLeg  44.4519 0.694517 0.416898
RightFoot  -0.604904 -1.6687 17.4345
RightToes  6.35927e-011 1.30204e-014 -6.03759e-014
Spine  23.6706 -6.59577 -18.6954
Spine1  -14.3795 -10.2368 8.36373
HEad  -43.9946 -39.1893 16.7207
LeftShoulder1  2.18466 -8.03199 -11.8062
LeftArm  34.7645 -25.5113 -76.0752
LeftForeArm  100.821 -79.5189 -48.8203
LeftHand  -0.910184 -5.74496 10.4068
RightShoulder  0.869767 0.683982 13.9283
RightArm  -35.9787 -12.1383 36.7092
RightForeArm  63.4488 74.8349 34.9085
RightHand  0.287566 -13.9785 -4.62562
LeftUpLeg  -8.69379 11.5984 36.915
LeftLeg  25.0019 1.44843 1.09358
LeftFoot  1.48264 3.45234 -30.332
LeftToes  7.40077e-010 7.2695e-011 -6.03601e-011
151
root  -7.68584 36.7477 -10.1627 79.6707 -80.5137 -82.8728
RightUpLeg  -19.2872 -19.9552 -3.01991
RightLeg  45.9068 -3.21165 -3.90785
RightFoot  -3.38519 -1.15112 16.1678
RightToes  6.35927e-011 1.30204e-014 -6.03759e-014
Spine  24.7006 -7.47015 -19.0576
Spine1  -15.9324 -11.1658 8.27622
HEad  -42.6553 -38.7278 15.8667
LeftShoulder1  1.98256 -7.73267 -10.3745
LeftArm  34.9654 -26.1393 -76.4161
LeftForeArm  114.398 -81.2029 -65.6416
LeftHand  -1.37566 -6.71494 13.5629
RightShoulder  0.864703 0.553888 14.5268
RightArm  -38.8315 -15.9289 37.8609
RightForeArm  68.9521 77.5075 46.1054
RightHand  0.783201 -14.5741 -10.4877
LeftUpLeg  -12.5279 13.6384 37.3362
LeftLeg  26.7268 0.322248 0.500826
LeftFoot  4.6989 3.92127 -27.4192
LeftToes  7.40077e-010 7.2695e-011 -6.03601e-011
152
root  -7.69787 36.6705 -11.3042 73.0789 -80.7592 -76.2226
RightUpLeg  -21.3058 -13.0715 -0.695036
RightLeg  49.5796 -7.33285 -9.49439
RightFoot  -3.11633 -1.22256 16.5851
RightToes  6.35927e-011 1.30204e-014 -6.03759e-014
Spine  25.0221 -7.35093 -19.386
Spine1  -15.8091 -11.0841 5.54277
HEad  -41.8653 -37.9921 15.8012
LeftShoulder1  1.88225 -7.37771 -9.99213
LeftArm  33.6985 -26.0617 -74.5045
LeftForeArm  127.945 -81.8054 -82.188
LeftHand  -1.10401 -6.01008 11.5119
RightShoulder  0.875987 0.566614 14.7614
RightArm  -39.9415 -18.953 39.9257
RightForeArm  84.1365 79.8166 64.1652
RightHand  0.960765 -14.3899 -12.8202
LeftUpLeg  -17.1554 16.9811 35.3736
LeftLeg  37.8111 -3.66009 -2.91238
LeftFoot  0.734281 2.94975 -27.6813
LeftToes  7.40077e-010 7.2695e-011 -6.03601e-011
